<svg xmlns="http://www.w3.org/2000/svg" width="143" height="143" viewBox="0 0 143 143">
  <path id="Icon_awesome-check-circle" data-name="Icon awesome-check-circle" d="M143.562,72.063a71.5,71.5,0,1,1-71.5-71.5A71.5,71.5,0,0,1,143.562,72.063Zm-79.77,37.859,53.048-53.048a4.613,4.613,0,0,0,0-6.523l-6.523-6.524a4.613,4.613,0,0,0-6.524,0L60.53,87.088l-20.2-20.2a4.613,4.613,0,0,0-6.524,0l-6.524,6.523a4.613,4.613,0,0,0,0,6.524l29.984,29.984A4.613,4.613,0,0,0,63.792,109.921Z" transform="translate(-0.563 -0.563)" fill="#ff893a"/>
</svg>
