<svg xmlns="http://www.w3.org/2000/svg" width="14.65" height="14.65" viewBox="0 0 14.65 14.65">
  <path id="Icon_awesome-download" data-name="Icon awesome-download" d="M6.181,0H8.47a.685.685,0,0,1,.687.687V5.494h2.509a.571.571,0,0,1,.4.976L7.717,10.825a.554.554,0,0,1-.781,0L2.578,6.47a.571.571,0,0,1,.4-.976H5.494V.687A.685.685,0,0,1,6.181,0Zm8.47,10.759v3.2a.685.685,0,0,1-.687.687H.687A.685.685,0,0,1,0,13.964v-3.2a.685.685,0,0,1,.687-.687h4.2l1.4,1.4a1.466,1.466,0,0,0,2.077,0l1.4-1.4h4.2A.685.685,0,0,1,14.65,10.759ZM11.1,13.277a.572.572,0,1,0-.572.572A.574.574,0,0,0,11.1,13.277Zm1.831,0a.572.572,0,1,0-.572.572A.574.574,0,0,0,12.934,13.277Z" fill="#ffefef"/>
</svg>
