<svg xmlns="http://www.w3.org/2000/svg" width="23" height="19.991" viewBox="0 0 23 19.991">
  <g id="send" transform="translate(-0.001 -33.492)">
    <path id="Path_237" data-name="Path 237" d="M22.985,34.308a.674.674,0,0,0-.9-.772L.434,41.8a.674.674,0,0,0,0,1.258L6.515,45.41v7.4a.674.674,0,0,0,1.276.3l2.516-4.992,6.139,4.556a.674.674,0,0,0,1.046-.345C23.223,33.538,22.975,34.356,22.985,34.308Zm-5.345,2.368L7.093,44.188,2.555,42.436ZM7.862,45.295l9.194-6.548c-7.911,8.346-7.5,7.907-7.533,7.953-.051.069.089-.2-1.661,3.274Zm8.619,5.73-5.4-4.01,9.771-10.308Z" transform="translate(0 0)" fill="#fff"/>
  </g>
</svg>
