<svg xmlns="http://www.w3.org/2000/svg" width="26.966" height="23.635" viewBox="0 0 26.966 23.635">
  <g id="chatting" transform="translate(0 -31.622)">
    <path id="Path_99" data-name="Path 99" d="M18.646,31.622H3.049A3.053,3.053,0,0,0,0,34.671V48.339a.791.791,0,0,0,1.249.643l4.343-3.1a2.126,2.126,0,0,1,1.241-.4h9.553a3.053,3.053,0,0,0,3.049-3.049V32.412A.79.79,0,0,0,18.646,31.622Zm-3.837,9.57H5.681a.79.79,0,1,1,0-1.58h9.128a.79.79,0,1,1,0,1.58Zm0-3.687H5.681a.79.79,0,1,1,0-1.58h9.128a.79.79,0,1,1,0,1.58Z" fill="#fff"/>
    <path id="Path_100" data-name="Path 100" d="M162.406,151.012v13.667a.791.791,0,0,1-1.249.643l-4.343-3.1a2.126,2.126,0,0,0-1.241-.4h-9.553a3.053,3.053,0,0,1-3.049-3.05v-1.5h8.857a4.635,4.635,0,0,0,4.63-4.629v-4.687h2.9a3.053,3.053,0,0,1,3.049,3.05Z" transform="translate(-135.44 -110.213)" fill="#fff"/>
  </g>
</svg>
