<svg xmlns="http://www.w3.org/2000/svg" width="23.94" height="19.051" viewBox="0 0 23.94 19.051">
  <g id="home" transform="translate(0.001 -48.994)">
    <g id="Group_192" data-name="Group 192" transform="translate(-0.001 48.994)">
      <path id="Path_97" data-name="Path 97" d="M74.251,120.939l-8.538,7.039a.2.2,0,0,1-.007.044.2.2,0,0,0-.007.044v7.127a.964.964,0,0,0,.95.951h5.7v-5.7h3.8v5.7h5.7a.965.965,0,0,0,.951-.951v-7.127a.209.209,0,0,0-.015-.089Z" transform="translate(-62.281 -117.093)" fill="#fff"/>
      <path id="Path_98" data-name="Path 98" d="M23.774,56.275l-3.252-2.7V47.514a.458.458,0,0,0-.475-.475H17.2a.457.457,0,0,0-.475.475v2.9L13.1,47.38a1.842,1.842,0,0,0-2.257,0L.164,56.275A.431.431,0,0,0,0,56.594a.481.481,0,0,0,.1.349l.921,1.1a.506.506,0,0,0,.312.163.552.552,0,0,0,.357-.1l10.275-8.568L22.245,58.1a.458.458,0,0,0,.312.1H22.6a.507.507,0,0,0,.312-.163l.921-1.1a.481.481,0,0,0,.1-.349A.433.433,0,0,0,23.774,56.275Z" transform="translate(0.001 -46.994)" fill="#fff"/>
    </g>
  </g>
</svg>
