<svg id="github" xmlns="http://www.w3.org/2000/svg" width="29.134" height="28.527" viewBox="0 0 29.134 28.527">
  <g id="Group_191" data-name="Group 191">
    <path id="Path_95" data-name="Path 95" d="M14.565,5.329a14.634,14.634,0,0,0-4.6,28.5c.728.135.994-.317.994-.7,0-.348-.013-1.267-.02-2.487-4.051.883-4.907-1.961-4.907-1.961a3.862,3.862,0,0,0-1.617-2.14c-1.324-.907.1-.889.1-.889a3.059,3.059,0,0,1,2.231,1.508,3.1,3.1,0,0,0,4.241,1.215,3.122,3.122,0,0,1,.925-1.956c-3.234-.37-6.635-1.624-6.635-7.227a5.669,5.669,0,0,1,1.5-3.926,5.27,5.27,0,0,1,.142-3.869s1.224-.393,4.006,1.5a13.75,13.75,0,0,1,7.294,0c2.78-1.892,4-1.5,4-1.5a5.278,5.278,0,0,1,.146,3.869,5.658,5.658,0,0,1,1.5,3.926c0,5.617-3.405,6.854-6.65,7.216a3.5,3.5,0,0,1,.989,2.708c0,1.956-.018,3.532-.018,4.011,0,.391.262.847,1,.7a14.635,14.635,0,0,0-4.618-28.5Z" transform="translate(0 -5.329)" fill="#fff"/>
  </g>
</svg>
