<svg xmlns="http://www.w3.org/2000/svg" width="30.471" height="33.597" viewBox="0 0 30.471 33.597">
  <path id="HackerRank_logo" d="M47.757,14.849c-.951-1.637-12.623-8.4-14.524-8.4S19.656,13.2,18.71,14.849s-.951,15.145,0,16.8,12.624,8.4,14.523,8.4,13.573-6.753,14.523-8.4S48.708,16.486,47.757,14.849ZM37.168,33.63c-.26,0-2.684-2.347-2.494-2.539a3.462,3.462,0,0,1,1.152-.12v-.063c0-1.479.034-4.22.061-5.6,0-.133-.029-.225-.029-.384H30.614c0,.635-.011,1.318,0,1.991.018.888.043,1.9.087,2.791.015.3-.1.391-.377.39-.665,0-1.33-.007-2-.006-.269,0-.385-.1-.377-.4.051-1.826.1-3.8.1-5.63,0-2.185-.059-6.141-.112-8.326v-.208a3.893,3.893,0,0,1-1.133-.121c-.192-.191,2.267-2.539,2.526-2.539s2.7,2.348,2.511,2.539a3.945,3.945,0,0,1-1.1.121v.208c-.159,1.689-.133,5.223-.173,6.915h5.266c0-.688.009-1.323,0-1.959-.018-1.123-.041-2.406-.077-3.529-.007-.222.062-.339.276-.341.727-.005,1.454-.008,2.18,0,.227,0,.3.113.3.353-.048,2.518-.121,5.184-.128,7.7,0,1.516.032,4.4.085,6.008v.091a4.558,4.558,0,0,1,1.161.121C39.823,31.283,37.428,33.63,37.168,33.63Z" transform="translate(-17.999 -6.45)" fill="#fff"/>
</svg>
