<svg xmlns="http://www.w3.org/2000/svg" width="21.747" height="28.054" viewBox="0 0 21.747 28.054">
  <g id="color-picker" transform="translate(-57.549)">
    <path id="Path_108" data-name="Path 108" d="M0,0H1.659V7H0Z" transform="translate(63.942 10.401) rotate(-45)" fill="#fff"/>
    <path id="Path_109" data-name="Path 109" d="M62.622,219.624a3.476,3.476,0,0,0,2.511-1.025l2.6-2.6-4.95-4.95-2.6,2.6a3.472,3.472,0,0,0-1.025,2.511l-.588.588a2.448,2.448,0,0,0,1.289,4.14,11.074,11.074,0,0,0-1.089,1.13,4.37,4.37,0,0,0-1.22,2.638,2.883,2.883,0,1,0,5.767,0c0-1.772-2.112-3.6-2.353-3.806l-.011-.009a2.434,2.434,0,0,0,1.082-.628Z" transform="translate(0 -199.486)" fill="#fff"/>
    <path id="Path_110" data-name="Path 110" d="M327.781.87a2.972,2.972,0,0,0-4.2,0L321.36,3.089l4.2,4.2,2.219-2.219a2.972,2.972,0,0,0,0-4.2Z" transform="translate(-249.356)" fill="#fff"/>
    <path id="Path_111" data-name="Path 111" d="M219.776,46.861a2.558,2.558,0,0,0-1.412,4.033L216.9,52.358l4.95,4.95,1.464-1.464a2.561,2.561,0,0,0,4.035-1.41Z" transform="translate(-150.619 -44.293)" fill="#fff"/>
  </g>
</svg>
